<svg width="605" height="16" viewBox="0 0 605 16" fill="none" xmlns="http://www.w3.org/2000/svg">
<path fill-rule="evenodd" clip-rule="evenodd" d="M0.292893 7.29289C-0.0976311 7.68342 -0.0976311 8.31658 0.292893 8.70711L6.65685 15.0711C7.04738 15.4616 7.68054 15.4616 8.07107 15.0711C8.46159 14.6805 8.46159 14.0474 8.07107 13.6569L3.41421 9H5V9.5H10V8.75V7.25V6.5H5V7H3.41421L8.07107 2.34315C8.46159 1.95262 8.46159 1.31946 8.07107 0.928932C7.68054 0.538408 7.04738 0.538408 6.65685 0.928932L0.292893 7.29289ZM20 9.5H30V8.75V7.25V6.5H20V7.25V8.75V9.5ZM40 9.5H50V8.75V7.25V6.5H40V7.25V8.75V9.5ZM60 9.5H70V8.75V7.25V6.5H60V7.25V8.75V9.5ZM80 9.5H90V8.75V7.25V6.5H80V7.25V8.75V9.5ZM100 9.5H110V8.75V7.25V6.5H100V7.25V8.75V9.5ZM120 9.5H130V8.75V7.25V6.5H120V7.25V8.75V9.5ZM140 9.5H150V8.75V7.25V6.5H140V7.25V8.75V9.5ZM160 9.5H170V8.75V7.25V6.5H160V7.25V8.75V9.5ZM180 9.5H190V8.75V7.25V6.5H180V7.25V8.75V9.5ZM200 9.5H210V8.75V7.25V6.5H200V7.25V8.75V9.5ZM220 9.5H230V8.75V7.25V6.5H220V7.25V8.75V9.5ZM240 9.5H250V8.75V7.25V6.5H240V7.25V8.75V9.5ZM260 9.5H270V8.75V7.25V6.5H260V7.25V8.75V9.5ZM280 9.5H290V8.75V7.25V6.5H280V7.25V8.75V9.5ZM300 9.5H310V8.75V7.25V6.5H300V7.25V8.75V9.5ZM320 9.5H330V8.75V7.25V6.5H320V7.25V8.75V9.5ZM340 9.5H350V8.75V7.25V6.5H340V7.25V8.75V9.5ZM360 9.5H370V8.75V7.25V6.5H360V7.25V8.75V9.5ZM380 9.5H390V8.75V7.25V6.5H380V7.25V8.75V9.5ZM400 9.5H410V8.75V7.25V6.5H400V7.25V8.75V9.5ZM420 9.5H430V8.75V7.25V6.5H420V7.25V8.75V9.5ZM440 9.5H450V8.75V7.25V6.5H440V7.25V8.75V9.5ZM460 9.5H470V8.75V7.25V6.5H460V7.25V8.75V9.5ZM480 9.5H490V8.75V7.25V6.5H480V7.25V8.75V9.5ZM500 9.5H510V8.75V7.25V6.5H500V7.25V8.75V9.5ZM520 9.5H530V8.75V7.25V6.5H520V7.25V8.75V9.5ZM540 9.5H550V8.75V7.25V6.5H540V7.25V8.75V9.5ZM560 9.5H570V8.75V7.25V6.5H560V7.25V8.75V9.5ZM580 9.5H590V8.75V7.25V6.5H580V7.25V8.75V9.5ZM600 9.5H605V8.75V7.25V6.5H600V7.25V8.75V9.5Z" fill="white"/>
</svg>
