<svg width="1999" height="20" viewBox="0 0 1999 20" fill="none" xmlns="http://www.w3.org/2000/svg">
<path fill-rule="evenodd" clip-rule="evenodd" d="M0.614896 9.11613C0.12674 9.60428 0.12674 10.3957 0.614896 10.8839L8.56985 18.8388C9.058 19.327 9.84946 19.327 10.3376 18.8388C10.8258 18.3507 10.8258 17.5592 10.3376 17.0711L4.51655 11.25H14.7272H14.7273H19.738V8.75001H14.7273H14.7272H4.51655L10.3376 2.92894C10.8258 2.44079 10.8258 1.64933 10.3376 1.16117C9.84946 0.673018 9.058 0.673018 8.56985 1.16117L0.614896 9.11613ZM29.7596 11.25H39.7812V8.75001H29.7596V11.25ZM49.8027 11.25H59.8243V8.75001H49.8027V11.25ZM69.8459 11.25H79.8674V8.75001H69.8459V11.25ZM89.889 11.25H99.9106V8.75001H89.889V11.25ZM109.932 11.25H119.954V8.75001H109.932V11.25ZM129.975 11.25H139.997V8.75001H129.975V11.25ZM150.018 11.25H160.04V8.75001H150.018V11.25ZM170.062 11.25H180.083V8.75001H170.062V11.25ZM190.105 11.25H200.126V8.75001H190.105V11.25ZM210.148 11.25H220.17V8.75001H210.148V11.25ZM230.191 11.25H240.213V8.75001H230.191V11.25ZM250.234 11.25H260.256V8.75001H250.234V11.25ZM270.277 11.25H280.299V8.75001H270.277V11.25ZM290.321 11.25H300.342V8.75001H290.321V11.25ZM310.364 11.25H320.385V8.75001H310.364V11.25ZM330.407 11.25H340.428V8.75001H330.407V11.25ZM350.45 11.25H360.472V8.75001H350.45V11.25ZM370.493 11.25H380.515V8.75001H370.493V11.25ZM390.536 11.25H400.558V8.75001H390.536V11.25ZM410.579 11.25H420.601V8.75001H410.579V11.25ZM430.623 11.25H440.644V8.75001H430.623V11.25ZM450.666 11.25H460.687V8.75001H450.666V11.25ZM470.709 11.25H480.73V8.75001H470.709V11.25ZM490.752 11.25H500.774V8.75001H490.752V11.25ZM510.795 11.25H520.817V8.75001H510.795V11.25ZM530.838 11.25H540.86V8.75001H530.838V11.25ZM550.881 11.25H560.903V8.75001H550.881V11.25ZM570.925 11.25H580.946V8.75001H570.925V11.25ZM590.968 11.25H600.989V8.75001H590.968V11.25ZM611.011 11.25H621.032V8.75001H611.011V11.25ZM631.054 11.25H641.075V8.75001H631.054V11.25ZM651.097 11.25H661.118V8.75001H651.097V11.25ZM671.14 11.25H681.162V8.75001H671.14V11.25ZM691.183 11.25H701.205V8.75001H691.183V11.25ZM711.226 11.25H721.248V8.75001H711.226V11.25ZM731.269 11.25H741.291V8.75001H731.269V11.25ZM751.312 11.25H761.334V8.75001H751.312V11.25ZM771.355 11.25H781.377V8.75001H771.355V11.25ZM791.399 11.25H801.42V8.75001H791.399V11.25ZM811.442 11.25H821.463V8.75001H811.442V11.25ZM831.485 11.25H841.506V8.75001H831.485V11.25ZM851.528 11.25H861.549V8.75001H851.528V11.25ZM871.571 11.25H881.592V8.75001H871.571V11.25ZM891.614 11.25H901.636V8.75001H891.614V11.25ZM911.657 11.25H921.679V8.75001H911.657V11.25ZM931.7 11.25H941.722V8.75001H931.7V11.25ZM951.743 11.25H961.765V8.75001H951.743V11.25ZM971.786 11.25H981.808V8.75001H971.786V11.25ZM991.829 11.25H1001.85V8.75001H991.829V11.25ZM1011.87 11.25H1021.89V8.75001H1011.87V11.25ZM1031.92 11.25H1041.94V8.75001H1031.92V11.25ZM1051.96 11.25H1061.98V8.75001H1051.96V11.25ZM1072 11.25H1082.02V8.75001H1072V11.25ZM1092.05 11.25H1102.07V8.75001H1092.05V11.25ZM1112.09 11.25H1122.11V8.75001H1112.09V11.25ZM1132.13 11.25H1142.15V8.75001H1132.13V11.25ZM1152.17 11.25H1162.2V8.75001H1152.17V11.25ZM1172.22 11.25H1182.24V8.75001H1172.22V11.25ZM1192.26 11.25H1202.28V8.75001H1192.26V11.25ZM1212.3 11.25H1222.33V8.75001H1212.3V11.25ZM1232.35 11.25H1242.37V8.75001H1232.35V11.25ZM1252.39 11.25H1262.41V8.75001H1252.39V11.25ZM1272.43 11.25H1282.46V8.75001H1272.43V11.25ZM1292.48 11.25H1302.5V8.75001H1292.48V11.25ZM1312.52 11.25H1322.54V8.75001H1312.52V11.25ZM1332.56 11.25H1342.59V8.75001H1332.56V11.25ZM1352.61 11.25H1362.63V8.75001H1352.61V11.25ZM1372.65 11.25H1382.67V8.75001H1372.65V11.25ZM1392.69 11.25H1402.71V8.75001H1392.69V11.25ZM1412.74 11.25H1422.76V8.75001H1412.74V11.25ZM1432.78 11.25H1442.8V8.75001H1432.78V11.25ZM1452.82 11.25H1462.84V8.75001H1452.82V11.25ZM1472.87 11.25H1482.89V8.75001H1472.87V11.25ZM1492.91 11.25H1502.93V8.75001H1492.91V11.25ZM1512.95 11.25H1522.97V8.75001H1512.95V11.25ZM1533 11.25H1543.02V8.75001H1533V11.25ZM1553.04 11.25H1563.06V8.75001H1553.04V11.25ZM1573.08 11.25H1583.1V8.75001H1573.08V11.25ZM1593.13 11.25H1603.15V8.75001H1593.13V11.25ZM1613.17 11.25H1623.19V8.75001H1613.17V11.25ZM1633.21 11.25H1643.23V8.75001H1633.21V11.25ZM1653.26 11.25H1663.28V8.75001H1653.26V11.25ZM1673.3 11.25H1683.32V8.75001H1673.3V11.25ZM1693.34 11.25H1703.36V8.75001H1693.34V11.25ZM1713.38 11.25H1723.41V8.75001H1713.38V11.25ZM1733.43 11.25H1743.45V8.75001H1733.43V11.25ZM1753.47 11.25H1763.49V8.75001H1753.47V11.25ZM1773.51 11.25H1783.54V8.75001H1773.51V11.25ZM1793.56 11.25H1803.58V8.75001H1793.56V11.25ZM1813.6 11.25H1823.62V8.75001H1813.6V11.25ZM1833.64 11.25H1843.67V8.75001H1833.64V11.25ZM1853.69 11.25H1863.71V8.75001H1853.69V11.25ZM1873.73 11.25H1883.75V8.75001H1873.73V11.25ZM1893.77 11.25H1903.8V8.75001H1893.77V11.25ZM1913.82 11.25H1923.84V8.75001H1913.82V11.25ZM1933.86 11.25H1943.88V8.75001H1933.86V11.25ZM1953.9 11.25H1963.92V8.75001H1953.9V11.25ZM1973.95 11.25H1983.97V8.75001H1973.95V11.25ZM1993.99 11.25H1999V8.75001H1993.99V11.25Z" fill="#6C2CE6"/>
</svg>
