<svg width="801" height="16" viewBox="0 0 801 16" fill="none" xmlns="http://www.w3.org/2000/svg">
<path fill-rule="evenodd" clip-rule="evenodd" d="M0.292893 7.2929C-0.0976311 7.68343 -0.0976311 8.31659 0.292893 8.70712L6.65685 15.0711C7.04738 15.4616 7.68054 15.4616 8.07107 15.0711C8.46159 14.6806 8.46159 14.0474 8.07107 13.6569L3.41421 9.00001H6.29801V9.25001H11.2649V6.75001H6.29801V7.00001H3.41421L8.07107 2.34315C8.46159 1.95263 8.46159 1.31947 8.07107 0.928941C7.68054 0.538416 7.04738 0.538416 6.65685 0.928941L0.292893 7.2929ZM21.1987 9.25001H31.1325V6.75001H21.1987V9.25001ZM41.0662 9.25001H51V6.75001H41.0662V9.25001ZM60.9338 9.25001H70.8676V6.75001H60.9338V9.25001ZM80.8013 9.25001H90.7351V6.75001H80.8013V9.25001ZM100.669 9.25001H110.603V6.75001H100.669V9.25001ZM120.536 9.25001H130.47V6.75001H120.536V9.25001ZM140.404 9.25001H150.338V6.75001H140.404V9.25001ZM160.272 9.25001H170.205V6.75001H160.272V9.25001ZM180.139 9.25001H190.073V6.75001H180.139V9.25001ZM200.007 9.25001H209.94V6.75001H200.007V9.25001ZM219.874 9.25001H229.808V6.75001H219.874V9.25001ZM239.742 9.25001H249.676V6.75001H239.742V9.25001ZM259.609 9.25001H269.543V6.75001H259.609V9.25001ZM279.477 9.25001H289.411V6.75001H279.477V9.25001ZM299.344 9.25001H309.278V6.75001H299.344V9.25001ZM319.212 9.25001H329.146V6.75001H319.212V9.25001ZM339.079 9.25001H349.013V6.75001H339.079V9.25001ZM358.947 9.25001H368.881V6.75001H358.947V9.25001ZM378.815 9.25001H388.748V6.75001H378.815V9.25001ZM398.682 9.25001H408.616V6.75001H398.682V9.25001ZM418.55 9.25001H428.483V6.75001H418.55V9.25001ZM438.417 9.25001H448.351V6.75001H438.417V9.25001ZM458.285 9.25001H468.219V6.75001H458.285V9.25001ZM478.152 9.25001H488.086V6.75001H478.152V9.25001ZM498.02 9.25001H507.954V6.75001H498.02V9.25001ZM517.888 9.25001H527.821V6.75001H517.888V9.25001ZM537.755 9.25001H547.689V6.75001H537.755V9.25001ZM557.623 9.25001H567.556V6.75001H557.623V9.25001ZM577.49 9.25001H587.424V6.75001H577.49V9.25001ZM597.358 9.25001H607.292V6.75001H597.358V9.25001ZM617.225 9.25001H627.159V6.75001H617.225V9.25001ZM637.093 9.25001H647.027V6.75001H637.093V9.25001ZM656.96 9.25001H666.894V6.75001H656.96V9.25001ZM676.828 9.25001H686.762V6.75001H676.828V9.25001ZM696.695 9.25001H706.629V6.75001H696.695V9.25001ZM716.563 9.25001H726.497V6.75001H716.563V9.25001ZM736.431 9.25001H746.364V6.75001H736.431V9.25001ZM756.298 9.25001H766.232V6.75001H756.298V9.25001ZM776.166 9.25001H786.099V6.75001H776.166V9.25001ZM796.033 9.25001H801V6.75001H796.033V9.25001Z" fill="#6C2CE6"/>
</svg>
